<svg xmlns="http://www.w3.org/2000/svg" xmlns:xlink="http://www.w3.org/1999/xlink"><symbol fill="none" viewBox="0 0 22 5" id="accardion__minus"><path d="M1.964 4.79h18.072c1.31 0 1.964-.64 1.964-1.92 0-1.281-.655-1.922-1.964-1.922H1.964C.654.948 0 1.588 0 2.87c0 1.28.655 1.92 1.964 1.92z" fill="#fff"/></symbol><symbol fill="none" viewBox="0 0 22 22" id="accardion__plus"><path d="M11 22c-1.339 0-2.008-.684-2.008-2.052V12.79H1.964C.654 12.79 0 12.15 0 10.869c0-1.28.655-1.92 1.964-1.92h7.028V2.007C8.992.669 9.662 0 11 0c1.339 0 2.008.67 2.008 2.008v6.94h7.028c1.31 0 1.964.64 1.964 1.921 0 1.28-.655 1.92-1.964 1.92h-7.028v7.16c0 1.367-.67 2.051-2.008 2.051z" fill="#fff"/></symbol><symbol fill="none" viewBox="0 0 50 50" id="contacts__icon"><path d="M35.417 42.708H14.583c-6.25 0-10.416-3.125-10.416-10.416V17.707c0-7.291 4.166-10.416 10.416-10.416h20.834c6.25 0 10.416 3.124 10.416 10.416v14.584c0 7.291-4.166 10.416-10.416 10.416z" stroke="#FF7D56" stroke-width="3" stroke-miterlimit="10" stroke-linecap="round" stroke-linejoin="round"/><path d="M35.417 18.75l-6.521 5.208c-2.146 1.709-5.667 1.709-7.813 0l-6.5-5.208" stroke="#FF7D56" stroke-width="3" stroke-miterlimit="10" stroke-linecap="round" stroke-linejoin="round"/></symbol><symbol fill="none" viewBox="0 0 50 50" id="contacts__icon2"><path d="M45.833 18.75v12.5c0 5.208-1.041 8.854-3.375 11.208L29.167 29.167 45.27 13.062c.375 1.646.562 3.521.562 5.688z" stroke="#FF7D56" stroke-width="3" stroke-linecap="round" stroke-linejoin="round"/><path d="M45.27 13.062L13.063 45.271C6.793 43.833 4.168 39.5 4.168 31.25v-12.5c0-10.417 4.166-14.584 14.583-14.584h12.5c8.25 0 12.583 2.626 14.02 8.896z" stroke="#FF7D56" stroke-width="3" stroke-linecap="round" stroke-linejoin="round"/><path d="M42.458 42.458c-2.354 2.334-6 3.375-11.208 3.375h-12.5c-2.167 0-4.042-.187-5.688-.562l16.105-16.105 13.291 13.292z" stroke="#FF7D56" stroke-width="3" stroke-linecap="round" stroke-linejoin="round"/><path d="M13 16.625c1.417-6.104 10.583-6.104 12 0 .813 3.583-1.438 6.625-3.417 8.5-1.437 1.375-3.708 1.375-5.166 0-1.98-1.875-4.25-4.917-3.417-8.5z" stroke="#FF7D56" stroke-width="3"/><path d="M18.947 18.125h.019" stroke="#FF7D56" stroke-width="3" stroke-linecap="round" stroke-linejoin="round"/></symbol><symbol fill="none" viewBox="0 0 50 50" id="contacts__icon3"><path d="M45.77 38.187c0 .75-.166 1.521-.52 2.271a8.597 8.597 0 01-1.417 2.125c-1.02 1.125-2.145 1.938-3.416 2.459a10.48 10.48 0 01-4.063.791c-2.125 0-4.396-.5-6.791-1.52-2.396-1.022-4.792-2.397-7.167-4.126a59.905 59.905 0 01-6.834-5.833 59.206 59.206 0 01-5.812-6.813c-1.708-2.375-3.083-4.75-4.083-7.104-1-2.375-1.5-4.646-1.5-6.812 0-1.417.25-2.771.75-4.021.5-1.27 1.291-2.437 2.395-3.48 1.334-1.312 2.792-1.957 4.334-1.957.583 0 1.166.125 1.687.375.542.25 1.021.625 1.396 1.166l4.834 6.813c.375.52.645 1 .833 1.458.187.438.291.875.291 1.27 0 .5-.145 1-.437 1.48-.27.48-.667.98-1.167 1.48L17.5 19.853c-.23.23-.333.5-.333.833 0 .167.02.313.062.48.063.166.125.291.167.416.375.688 1.02 1.584 1.937 2.667a71.208 71.208 0 003.021 3.291c1.125 1.105 2.209 2.125 3.313 3.063 1.083.917 1.979 1.542 2.687 1.917.104.041.23.104.375.166.167.063.334.084.521.084.354 0 .625-.125.854-.355l1.584-1.562c.52-.52 1.02-.917 1.5-1.167.479-.291.958-.437 1.479-.437.395 0 .812.083 1.27.27.459.188.938.459 1.459.813l6.896 4.896c.541.375.916.813 1.145 1.333.209.521.334 1.042.334 1.625z" stroke="#FF7D56" stroke-width="3" stroke-miterlimit="10"/><path d="M38.542 18.75c0-1.25-.98-3.167-2.438-4.73-1.333-1.437-3.104-2.562-4.854-2.562m14.583 7.292c0-8.063-6.52-14.584-14.583-14.584" stroke="#FF7D56" stroke-width="3" stroke-linecap="round" stroke-linejoin="round"/></symbol><symbol viewBox="0 0 20 20" id="contacts__icon4"><path d="M17.802 12.298s1.617 1.597 2.017 2.336a.127.127 0 01.018.035c.163.273.203.487.123.645-.135.261-.592.392-.747.403h-2.858c-.199 0-.613-.052-1.117-.4-.385-.269-.768-.712-1.139-1.145-.554-.643-1.033-1.201-1.518-1.201a.548.548 0 00-.18.03c-.367.116-.833.639-.833 2.032 0 .436-.344.684-.585.684H9.674c-.446 0-2.768-.156-4.827-2.327C2.324 10.732.058 5.4.036 5.353c-.141-.345.155-.533.475-.533h2.886c.387 0 .513.234.601.444.102.241.48 1.205 1.1 2.288 1.004 1.762 1.621 2.479 2.114 2.479a.527.527 0 00.264-.07c.644-.354.524-2.654.494-3.128 0-.092-.001-1.027-.331-1.479-.236-.324-.638-.45-.881-.496.065-.094.203-.238.38-.323.441-.22 1.238-.252 2.029-.252h.439c.858.012 1.08.067 1.392.146.628.15.64.557.585 1.943-.016.396-.033.842-.033 1.367 0 .112-.005.237-.005.364-.019.711-.044 1.512.458 1.841a.41.41 0 00.217.062c.174 0 .695 0 2.108-2.425.62-1.071 1.1-2.334 1.133-2.429.028-.053.112-.202.214-.262a.479.479 0 01.236-.056h3.395c.37 0 .621.056.67.196.082.227-.016.92-1.566 3.016-.261.349-.49.651-.691.915-1.405 1.844-1.405 1.937.083 3.337z"/></symbol><symbol fill="none" viewBox="0 0 44 44" id="contacts__icon5"><path d="M22.002 0c-5.975 0-6.725.026-9.071.133C10.589.24 8.99.61 7.59 1.155c-1.447.562-2.674 1.314-3.897 2.537-1.224 1.223-1.976 2.45-2.54 3.897-.543 1.399-.914 2.998-1.02 5.34C.028 15.274 0 16.024 0 22s.027 6.722.133 9.069c.108 2.342.478 3.94 1.022 5.34.562 1.447 1.314 2.674 2.537 3.897a10.772 10.772 0 003.896 2.539c1.4.544 3 .915 5.34 1.022 2.347.107 3.097.133 9.071.133 5.976 0 6.723-.026 9.07-.133 2.342-.107 3.942-.478 5.342-1.022a10.763 10.763 0 003.895-2.54c1.224-1.222 1.975-2.45 2.539-3.896.54-1.4.912-2.998 1.022-5.34.105-2.346.133-3.094.133-9.069 0-5.975-.028-6.725-.133-9.071-.11-2.342-.481-3.941-1.022-5.34-.564-1.447-1.315-2.674-2.54-3.897a10.752 10.752 0 00-3.895-2.537C35.007.611 33.408.24 31.066.133 28.719.026 27.972 0 21.996 0h.006zM20.03 3.965h1.973c5.874 0 6.57.02 8.89.126 2.145.098 3.31.457 4.085.758 1.026.398 1.758.875 2.528 1.645s1.247 1.503 1.646 2.53c.301.775.66 1.939.758 4.084.105 2.319.128 3.016.128 8.887s-.023 6.568-.128 8.887c-.098 2.145-.457 3.31-.758 4.084-.399 1.026-.876 1.758-1.646 2.527-.77.77-1.501 1.247-2.528 1.645-.775.303-1.94.66-4.085.759-2.32.105-3.016.128-8.89.128-5.874 0-6.57-.023-8.89-.128-2.145-.1-3.31-.458-4.085-.759-1.027-.399-1.76-.875-2.53-1.645-.77-.77-1.247-1.502-1.646-2.529-.302-.775-.66-1.939-.758-4.084-.105-2.319-.127-3.016-.127-8.89 0-5.875.022-6.568.127-8.888.098-2.145.456-3.309.758-4.084.398-1.027.876-1.76 1.646-2.53.77-.77 1.503-1.247 2.53-1.647.775-.302 1.94-.66 4.085-.758 2.03-.092 2.816-.12 6.917-.124v.006zm13.717 3.652a2.64 2.64 0 10-.001 5.282 2.64 2.64 0 000-5.282zm-11.744 3.085c-6.24 0-11.298 5.059-11.298 11.298 0 6.24 5.059 11.296 11.298 11.296 6.24 0 11.296-5.057 11.296-11.296 0-6.24-5.057-11.298-11.296-11.298zm0 3.965a7.333 7.333 0 110 14.667 7.333 7.333 0 010-14.667z" fill="#fff"/></symbol><symbol fill="none" viewBox="0 0 31 35" id="contacts__icon6"><path d="M31 17.5L0 0v35l31-17.5z" fill="#fff"/></symbol><symbol fill="none" viewBox="0 0 25 25" id="popup__close"><path d="M1 24L24 1m0 23L1 1" stroke="#FFDCBF" stroke-width="2" stroke-linecap="round"/></symbol></svg>